<mxfile host="app.diagrams.net" modified="2021-12-01T04:05:54.505Z" agent="5.0 (Macintosh; Intel Mac OS X 10_15_7) AppleWebKit/537.36 (KHTML, like Gecko) Chrome/95.0.4638.69 Safari/537.36" etag="ZrkBFSflMeqjjojwdX19" version="15.3.4" type="github" pages="2">
  <diagram id="1yf_RkeojxkNVYISUwOE" name="Page-1">
    <mxGraphModel dx="859" dy="581" grid="1" gridSize="10" guides="1" tooltips="1" connect="1" arrows="1" fold="1" page="1" pageScale="1" pageWidth="827" pageHeight="1169" math="0" shadow="0">
      <root>
        <mxCell id="0" />
        <mxCell id="1" parent="0" />
        <mxCell id="6FKXDvbQbLNeEYdqOj8C-1" value="网关层" style="rounded=1;whiteSpace=wrap;html=1;hachureGap=4;pointerEvents=0;fillColor=#dae8fc;strokeColor=#6c8ebf;fontSize=14;fontFamily=Helvetica;" vertex="1" parent="1">
          <mxGeometry x="300" y="200" width="100" height="90" as="geometry" />
        </mxCell>
        <mxCell id="6FKXDvbQbLNeEYdqOj8C-2" value="接口级（limit_req）" style="rounded=1;whiteSpace=wrap;html=1;hachureGap=4;pointerEvents=0;fillColor=#ffe6cc;strokeColor=#d79b00;fontSize=14;fontFamily=Helvetica;" vertex="1" parent="1">
          <mxGeometry x="450" y="160" width="140" height="70" as="geometry" />
        </mxCell>
        <mxCell id="6FKXDvbQbLNeEYdqOj8C-3" value="商户号+接口&lt;br style=&quot;font-size: 14px;&quot;&gt;（lua + 缓存）" style="rounded=1;whiteSpace=wrap;html=1;hachureGap=4;pointerEvents=0;fillColor=#fff2cc;strokeColor=#d6b656;fontSize=14;fontFamily=Helvetica;" vertex="1" parent="1">
          <mxGeometry x="450" y="260" width="140" height="70" as="geometry" />
        </mxCell>
        <mxCell id="6FKXDvbQbLNeEYdqOj8C-4" value="" style="shape=flexArrow;endArrow=classic;html=1;startSize=14;endSize=16.3;sourcePerimeterSpacing=8;targetPerimeterSpacing=8;endWidth=33;fillColor=#d5e8d4;strokeColor=#82b366;fontSize=14;fontFamily=Helvetica;" edge="1" parent="1">
          <mxGeometry width="50" height="50" relative="1" as="geometry">
            <mxPoint x="170" y="245" as="sourcePoint" />
            <mxPoint x="280" y="244.5" as="targetPoint" />
          </mxGeometry>
        </mxCell>
        <mxCell id="6FKXDvbQbLNeEYdqOj8C-5" value="业务请求" style="edgeLabel;html=1;align=center;verticalAlign=middle;resizable=0;points=[];fontSize=14;fontFamily=Helvetica;" vertex="1" connectable="0" parent="6FKXDvbQbLNeEYdqOj8C-4">
          <mxGeometry x="-0.1556" y="-4" relative="1" as="geometry">
            <mxPoint y="-3" as="offset" />
          </mxGeometry>
        </mxCell>
        <mxCell id="6FKXDvbQbLNeEYdqOj8C-6" value="" style="endArrow=classic;html=1;startSize=14;endSize=14;sourcePerimeterSpacing=8;targetPerimeterSpacing=8;entryX=0;entryY=0.65;entryDx=0;entryDy=0;entryPerimeter=0;exitX=1;exitY=0.5;exitDx=0;exitDy=0;fontSize=14;fontFamily=Helvetica;" edge="1" parent="1" source="6FKXDvbQbLNeEYdqOj8C-1" target="6FKXDvbQbLNeEYdqOj8C-2">
          <mxGeometry width="50" height="50" relative="1" as="geometry">
            <mxPoint x="320" y="460" as="sourcePoint" />
            <mxPoint x="370" y="410" as="targetPoint" />
          </mxGeometry>
        </mxCell>
        <mxCell id="6FKXDvbQbLNeEYdqOj8C-7" value="" style="endArrow=classic;html=1;startSize=14;endSize=14;sourcePerimeterSpacing=8;targetPerimeterSpacing=8;exitX=0.5;exitY=1;exitDx=0;exitDy=0;fontSize=14;fontFamily=Helvetica;" edge="1" parent="1" source="6FKXDvbQbLNeEYdqOj8C-2" target="6FKXDvbQbLNeEYdqOj8C-3">
          <mxGeometry width="50" height="50" relative="1" as="geometry">
            <mxPoint x="180" y="490" as="sourcePoint" />
            <mxPoint x="230" y="440" as="targetPoint" />
          </mxGeometry>
        </mxCell>
      </root>
    </mxGraphModel>
  </diagram>
  <diagram id="ctWJvf6OKpol75lul-oF" name="Page-2">
    <mxGraphModel dx="1246" dy="842" grid="1" gridSize="10" guides="1" tooltips="1" connect="1" arrows="1" fold="1" page="1" pageScale="1" pageWidth="827" pageHeight="1169" math="0" shadow="0">
      <root>
        <mxCell id="eZauWvoLvya45q4ypvAv-0" />
        <mxCell id="eZauWvoLvya45q4ypvAv-1" parent="eZauWvoLvya45q4ypvAv-0" />
        <mxCell id="eZauWvoLvya45q4ypvAv-2" value="缓存" style="rounded=1;whiteSpace=wrap;html=1;hachureGap=4;pointerEvents=0;fontFamily=Helvetica;fontSize=24;" vertex="1" parent="eZauWvoLvya45q4ypvAv-1">
          <mxGeometry x="530" y="260" width="120" height="60" as="geometry" />
        </mxCell>
        <mxCell id="eZauWvoLvya45q4ypvAv-3" value="" style="shape=flexArrow;endArrow=classic;html=1;fontFamily=Helvetica;fontSize=24;startSize=14;endSize=14;sourcePerimeterSpacing=8;targetPerimeterSpacing=8;" edge="1" parent="eZauWvoLvya45q4ypvAv-1">
          <mxGeometry width="50" height="50" relative="1" as="geometry">
            <mxPoint x="190" y="289.5" as="sourcePoint" />
            <mxPoint x="290" y="289.5" as="targetPoint" />
          </mxGeometry>
        </mxCell>
        <mxCell id="eZauWvoLvya45q4ypvAv-6" value="CGI" style="rounded=1;whiteSpace=wrap;html=1;hachureGap=4;pointerEvents=0;fontFamily=Helvetica;fontSize=24;" vertex="1" parent="eZauWvoLvya45q4ypvAv-1">
          <mxGeometry x="310" y="260" width="120" height="60" as="geometry" />
        </mxCell>
        <mxCell id="eZauWvoLvya45q4ypvAv-7" value="" style="endArrow=classic;html=1;fontFamily=Helvetica;fontSize=24;startSize=14;endSize=14;targetPerimeterSpacing=8;entryX=0;entryY=0.5;entryDx=0;entryDy=0;exitX=1;exitY=0.5;exitDx=0;exitDy=0;startArrow=none;" edge="1" parent="eZauWvoLvya45q4ypvAv-1" source="eZauWvoLvya45q4ypvAv-8" target="eZauWvoLvya45q4ypvAv-2">
          <mxGeometry width="50" height="50" relative="1" as="geometry">
            <mxPoint x="250" y="440" as="sourcePoint" />
            <mxPoint x="300" y="390" as="targetPoint" />
          </mxGeometry>
        </mxCell>
        <mxCell id="eZauWvoLvya45q4ypvAv-8" value="X" style="text;html=1;align=center;verticalAlign=middle;resizable=0;points=[];autosize=1;strokeColor=none;fillColor=none;fontSize=24;fontFamily=Helvetica;" vertex="1" parent="eZauWvoLvya45q4ypvAv-1">
          <mxGeometry x="460" y="275" width="30" height="30" as="geometry" />
        </mxCell>
        <mxCell id="eZauWvoLvya45q4ypvAv-9" value="" style="endArrow=none;html=1;fontFamily=Helvetica;fontSize=24;startSize=14;endSize=14;sourcePerimeterSpacing=8;entryX=0;entryY=0.5;entryDx=0;entryDy=0;exitX=1;exitY=0.5;exitDx=0;exitDy=0;" edge="1" parent="eZauWvoLvya45q4ypvAv-1" source="eZauWvoLvya45q4ypvAv-6" target="eZauWvoLvya45q4ypvAv-8">
          <mxGeometry width="50" height="50" relative="1" as="geometry">
            <mxPoint x="430" y="290" as="sourcePoint" />
            <mxPoint x="530" y="290" as="targetPoint" />
          </mxGeometry>
        </mxCell>
        <mxCell id="eZauWvoLvya45q4ypvAv-10" value="" style="curved=1;endArrow=classic;html=1;fontFamily=Helvetica;fontSize=24;startSize=14;endSize=14;sourcePerimeterSpacing=8;targetPerimeterSpacing=8;exitX=0.75;exitY=1;exitDx=0;exitDy=0;entryX=0.25;entryY=1;entryDx=0;entryDy=0;" edge="1" parent="eZauWvoLvya45q4ypvAv-1" source="eZauWvoLvya45q4ypvAv-6" target="eZauWvoLvya45q4ypvAv-6">
          <mxGeometry width="50" height="50" relative="1" as="geometry">
            <mxPoint x="370" y="440" as="sourcePoint" />
            <mxPoint x="420" y="390" as="targetPoint" />
            <Array as="points">
              <mxPoint x="400" y="390" />
              <mxPoint x="340" y="370" />
            </Array>
          </mxGeometry>
        </mxCell>
        <mxCell id="eZauWvoLvya45q4ypvAv-11" value="流水号本地生成&lt;br&gt;snowflake" style="edgeLabel;html=1;align=center;verticalAlign=middle;resizable=0;points=[];fontSize=24;fontFamily=Helvetica;" vertex="1" connectable="0" parent="eZauWvoLvya45q4ypvAv-10">
          <mxGeometry x="0.1368" y="-1" relative="1" as="geometry">
            <mxPoint as="offset" />
          </mxGeometry>
        </mxCell>
      </root>
    </mxGraphModel>
  </diagram>
</mxfile>
